<?xml version="1.0" encoding="utf-8" standalone="no"?>
<!DOCTYPE svg PUBLIC "-//W3C//DTD SVG 1.1//EN"
  "http://www.w3.org/Graphics/SVG/1.1/DTD/svg11.dtd">
<!-- Created with matplotlib (https://matplotlib.org/) -->
<svg height="345.6pt" version="1.1" viewBox="0 0 460.8 345.6" width="460.8pt" xmlns="http://www.w3.org/2000/svg" xmlns:xlink="http://www.w3.org/1999/xlink">
 <defs>
  <style type="text/css">
*{stroke-linecap:butt;stroke-linejoin:round;}
  </style>
 </defs>
 <g id="figure_1">
  <g id="patch_1">
   <path d="M 0 345.6 
L 460.8 345.6 
L 460.8 0 
L 0 0 
z
" style="fill:#ffffff;"/>
  </g>
  <g id="axes_1">
   <g id="patch_2">
    <path d="M 57.6 307.584 
L 414.72 307.584 
L 414.72 41.472 
L 57.6 41.472 
z
" style="fill:#ffffff;"/>
   </g>
   <g id="patch_3">
    <path clip-path="url(#paa88b29e64)" d="M 272.26716 168.361838 
L 270.232119 169.451871 
L 270.232119 168.797852 
L 262.091957 168.797852 
L 262.091957 167.925825 
L 270.232119 167.925825 
L 270.232119 167.271805 
z
" style="fill:#ffffff;stroke:#000000;stroke-linejoin:miter;"/>
   </g>
   <g id="patch_4">
    <path clip-path="url(#paa88b29e64)" d="M 282.442363 168.361838 
L 280.407322 169.451871 
L 280.407322 168.797852 
L 272.26716 168.797852 
L 272.26716 167.925825 
L 280.407322 167.925825 
L 280.407322 167.271805 
z
" style="fill:#ffffff;stroke:#000000;stroke-linejoin:miter;"/>
   </g>
   <g id="patch_5">
    <path clip-path="url(#paa88b29e64)" d="M 292.617566 168.361838 
L 290.582525 169.451871 
L 290.582525 168.797852 
L 282.442363 168.797852 
L 282.442363 167.925825 
L 290.582525 167.925825 
L 290.582525 167.271805 
z
" style="fill:#ffffff;stroke:#000000;stroke-linejoin:miter;"/>
   </g>
   <g id="patch_6">
    <path clip-path="url(#paa88b29e64)" d="M 302.792768 168.361838 
L 300.757728 169.451871 
L 300.757728 168.797852 
L 292.617566 168.797852 
L 292.617566 167.925825 
L 300.757728 167.925825 
L 300.757728 167.271805 
z
" style="fill:#ffffff;stroke:#000000;stroke-linejoin:miter;"/>
   </g>
   <g id="patch_7">
    <path clip-path="url(#paa88b29e64)" d="M 312.967971 168.361838 
L 310.932931 169.451871 
L 310.932931 168.797852 
L 302.792768 168.797852 
L 302.792768 167.925825 
L 310.932931 167.925825 
L 310.932931 167.271805 
z
" style="fill:#ffffff;stroke:#000000;stroke-linejoin:miter;"/>
   </g>
   <g id="patch_8">
    <path clip-path="url(#paa88b29e64)" d="M 323.143174 168.361838 
L 321.108134 169.451871 
L 321.108134 168.797852 
L 312.967971 168.797852 
L 312.967971 167.925825 
L 321.108134 167.925825 
L 321.108134 167.271805 
z
" style="fill:#ffffff;stroke:#000000;stroke-linejoin:miter;"/>
   </g>
   <g id="patch_9">
    <path clip-path="url(#paa88b29e64)" d="M 333.318377 168.361838 
L 331.283336 169.451871 
L 331.283336 168.797852 
L 323.143174 168.797852 
L 323.143174 167.925825 
L 331.283336 167.925825 
L 331.283336 167.271805 
z
" style="fill:#ffffff;stroke:#000000;stroke-linejoin:miter;"/>
   </g>
   <g id="patch_10">
    <path clip-path="url(#paa88b29e64)" d="M 343.49358 168.361838 
L 341.458539 169.451871 
L 341.458539 168.797852 
L 333.318377 168.797852 
L 333.318377 167.925825 
L 341.458539 167.925825 
L 341.458539 167.271805 
z
" style="fill:#ffffff;stroke:#000000;stroke-linejoin:miter;"/>
   </g>
   <g id="patch_11">
    <path clip-path="url(#paa88b29e64)" d="M 353.668783 168.361838 
L 351.633742 169.451871 
L 351.633742 168.797852 
L 343.49358 168.797852 
L 343.49358 167.925825 
L 351.633742 167.925825 
L 351.633742 167.271805 
z
" style="fill:#ffffff;stroke:#000000;stroke-linejoin:miter;"/>
   </g>
   <g id="patch_12">
    <path clip-path="url(#paa88b29e64)" d="M 363.843986 168.361838 
L 361.808945 169.451871 
L 361.808945 168.797852 
L 353.668783 168.797852 
L 353.668783 167.925825 
L 361.808945 167.925825 
L 361.808945 167.271805 
z
" style="fill:#ffffff;stroke:#000000;stroke-linejoin:miter;"/>
   </g>
   <g id="patch_13">
    <path clip-path="url(#paa88b29e64)" d="M 374.019189 168.361838 
L 371.984148 169.451871 
L 371.984148 168.797852 
L 363.843986 168.797852 
L 363.843986 167.925825 
L 371.984148 167.925825 
L 371.984148 167.271805 
z
" style="fill:#ffffff;stroke:#000000;stroke-linejoin:miter;"/>
   </g>
   <g id="patch_14">
    <path clip-path="url(#paa88b29e64)" d="M 384.194391 168.361838 
L 382.159351 169.451871 
L 382.159351 168.797852 
L 374.019189 168.797852 
L 374.019189 167.925825 
L 382.159351 167.925825 
L 382.159351 167.271805 
z
" style="fill:#ffffff;stroke:#000000;stroke-linejoin:miter;"/>
   </g>
   <g id="patch_15">
    <path clip-path="url(#paa88b29e64)" d="M 394.369594 168.361838 
L 392.334554 169.451871 
L 392.334554 168.797852 
L 384.194391 168.797852 
L 384.194391 167.925825 
L 392.334554 167.925825 
L 392.334554 167.271805 
z
" style="fill:#ffffff;stroke:#000000;stroke-linejoin:miter;"/>
   </g>
   <g id="patch_16">
    <path clip-path="url(#paa88b29e64)" d="M 403.204418 168.361838 
L 401.169377 169.451871 
L 401.169377 168.797852 
L 394.369594 168.797852 
L 394.369594 167.925825 
L 401.169377 167.925825 
L 401.169377 167.271805 
z
" style="fill:#ffffff;stroke:#000000;stroke-linejoin:miter;"/>
   </g>
   <g id="patch_17">
    <path clip-path="url(#paa88b29e64)" d="M 92.340323 58.91253 
L 90.001962 58.450068 
L 90.541584 57.987606 
L 90.181829 57.679292 
L 90.901325 57.062676 
L 91.26108 57.37099 
L 91.800701 56.908529 
z
" style="fill:#ffffff;stroke:#000000;stroke-linejoin:miter;"/>
   </g>
   <g id="patch_18">
    <path clip-path="url(#paa88b29e64)" d="M 99.535278 65.078689 
L 97.196917 64.616227 
L 97.736539 64.153765 
L 91.980575 59.220838 
L 92.700071 58.604222 
L 98.456035 63.537149 
L 98.995656 63.074687 
z
" style="fill:#ffffff;stroke:#000000;stroke-linejoin:miter;"/>
   </g>
   <g id="patch_19">
    <path clip-path="url(#paa88b29e64)" d="M 106.730233 71.244847 
L 104.391872 70.782385 
L 104.931494 70.319923 
L 99.17553 65.386997 
L 99.895026 64.770381 
L 105.650989 69.703308 
L 106.190611 69.240846 
z
" style="fill:#ffffff;stroke:#000000;stroke-linejoin:miter;"/>
   </g>
   <g id="patch_20">
    <path clip-path="url(#paa88b29e64)" d="M 113.925188 77.411006 
L 111.586827 76.948544 
L 112.126449 76.486082 
L 106.370485 71.553155 
L 107.08998 70.936539 
L 112.845944 75.869466 
L 113.385566 75.407004 
z
" style="fill:#ffffff;stroke:#000000;stroke-linejoin:miter;"/>
   </g>
   <g id="patch_21">
    <path clip-path="url(#paa88b29e64)" d="M 121.120143 83.577164 
L 118.781782 83.114702 
L 119.321404 82.652241 
L 113.56544 77.719314 
L 114.284935 77.102698 
L 120.040899 82.035625 
L 120.580521 81.573163 
z
" style="fill:#ffffff;stroke:#000000;stroke-linejoin:miter;"/>
   </g>
   <g id="patch_22">
    <path clip-path="url(#paa88b29e64)" d="M 128.315098 89.743323 
L 125.976737 89.280861 
L 126.516359 88.818399 
L 120.760395 83.885472 
L 121.47989 83.268856 
L 127.235854 88.201783 
L 127.775476 87.739321 
z
" style="fill:#ffffff;stroke:#000000;stroke-linejoin:miter;"/>
   </g>
   <g id="patch_23">
    <path clip-path="url(#paa88b29e64)" d="M 135.510053 95.909481 
L 133.171692 95.44702 
L 133.711314 94.984558 
L 127.95535 90.051631 
L 128.674845 89.435015 
L 134.430809 94.367942 
L 134.970431 93.90548 
z
" style="fill:#ffffff;stroke:#000000;stroke-linejoin:miter;"/>
   </g>
   <g id="patch_24">
    <path clip-path="url(#paa88b29e64)" d="M 142.705007 102.07564 
L 140.366647 101.613178 
L 140.906269 101.150716 
L 135.150305 96.217789 
L 135.8698 95.601174 
L 141.625764 100.5341 
L 142.165386 100.071638 
z
" style="fill:#ffffff;stroke:#000000;stroke-linejoin:miter;"/>
   </g>
   <g id="patch_25">
    <path clip-path="url(#paa88b29e64)" d="M 149.899962 108.241799 
L 147.561602 107.779337 
L 148.101224 107.316875 
L 142.34526 102.383948 
L 143.064755 101.767332 
L 148.820719 106.700259 
L 149.360341 106.237797 
z
" style="fill:#ffffff;stroke:#000000;stroke-linejoin:miter;"/>
   </g>
   <g id="patch_26">
    <path clip-path="url(#paa88b29e64)" d="M 157.094917 114.407957 
L 154.756557 113.945495 
L 155.296179 113.483033 
L 149.540215 108.550107 
L 150.25971 107.933491 
L 156.015674 112.866418 
L 156.555296 112.403956 
z
" style="fill:#ffffff;stroke:#000000;stroke-linejoin:miter;"/>
   </g>
   <g id="patch_27">
    <path clip-path="url(#paa88b29e64)" d="M 164.289872 120.574116 
L 161.951512 120.111654 
L 162.491134 119.649192 
L 156.73517 114.716265 
L 157.454665 114.099649 
L 163.210629 119.032576 
L 163.750251 118.570114 
z
" style="fill:#ffffff;stroke:#000000;stroke-linejoin:miter;"/>
   </g>
   <g id="patch_28">
    <path clip-path="url(#paa88b29e64)" d="M 171.484827 126.740274 
L 169.146467 126.277812 
L 169.686089 125.81535 
L 163.930125 120.882424 
L 164.64962 120.265808 
L 170.405584 125.198735 
L 170.945206 124.736273 
z
" style="fill:#ffffff;stroke:#000000;stroke-linejoin:miter;"/>
   </g>
   <g id="patch_29">
    <path clip-path="url(#paa88b29e64)" d="M 178.679782 132.906433 
L 176.341422 132.443971 
L 176.881043 131.981509 
L 171.12508 127.048582 
L 171.844575 126.431966 
L 177.600539 131.364893 
L 178.140161 130.902431 
z
" style="fill:#ffffff;stroke:#000000;stroke-linejoin:miter;"/>
   </g>
   <g id="patch_30">
    <path clip-path="url(#paa88b29e64)" d="M 103.132755 290.143464 
L 102.593134 292.147465 
L 102.053512 291.685003 
L 103.492496 290.451778 
L 102.773 289.835162 
L 101.334017 291.068387 
L 100.794395 290.605926 
z
" style="fill:#ffffff;stroke:#000000;stroke-linejoin:miter;"/>
   </g>
   <g id="patch_31">
    <path clip-path="url(#paa88b29e64)" d="M 110.32771 283.977305 
L 109.788089 285.981307 
L 109.248467 285.518845 
L 103.492503 290.451772 
L 102.773008 289.835156 
L 108.528971 284.902229 
L 107.98935 284.439767 
z
" style="fill:#ffffff;stroke:#000000;stroke-linejoin:miter;"/>
   </g>
   <g id="patch_32">
    <path clip-path="url(#paa88b29e64)" d="M 117.522665 277.811147 
L 116.983044 279.815148 
L 116.443422 279.352686 
L 110.687458 284.285613 
L 109.967962 283.668997 
L 115.723926 278.73607 
L 115.184305 278.273608 
z
" style="fill:#ffffff;stroke:#000000;stroke-linejoin:miter;"/>
   </g>
   <g id="patch_33">
    <path clip-path="url(#paa88b29e64)" d="M 124.71762 271.644988 
L 124.177998 273.64899 
L 123.638377 273.186528 
L 117.882413 278.119455 
L 117.162917 277.502839 
L 122.918881 272.569912 
L 122.37926 272.10745 
z
" style="fill:#ffffff;stroke:#000000;stroke-linejoin:miter;"/>
   </g>
   <g id="patch_34">
    <path clip-path="url(#paa88b29e64)" d="M 131.912575 265.478829 
L 131.372953 267.482831 
L 130.833332 267.020369 
L 125.077368 271.953296 
L 124.357872 271.33668 
L 130.113836 266.403753 
L 129.574215 265.941291 
z
" style="fill:#ffffff;stroke:#000000;stroke-linejoin:miter;"/>
   </g>
   <g id="patch_35">
    <path clip-path="url(#paa88b29e64)" d="M 139.10753 259.312671 
L 138.567908 261.316672 
L 138.028287 260.854211 
L 132.272323 265.787137 
L 131.552827 265.170522 
L 137.308791 260.237595 
L 136.76917 259.775133 
z
" style="fill:#ffffff;stroke:#000000;stroke-linejoin:miter;"/>
   </g>
   <g id="patch_36">
    <path clip-path="url(#paa88b29e64)" d="M 146.302485 253.146512 
L 145.762863 255.150514 
L 145.223242 254.688052 
L 139.467278 259.620979 
L 138.747782 259.004363 
L 144.503746 254.071436 
L 143.964125 253.608974 
z
" style="fill:#ffffff;stroke:#000000;stroke-linejoin:miter;"/>
   </g>
   <g id="patch_37">
    <path clip-path="url(#paa88b29e64)" d="M 153.49744 246.980354 
L 152.957818 248.984355 
L 152.418197 248.521893 
L 146.662233 253.45482 
L 145.942737 252.838204 
L 151.698701 247.905278 
L 151.15908 247.442816 
z
" style="fill:#ffffff;stroke:#000000;stroke-linejoin:miter;"/>
   </g>
   <g id="patch_38">
    <path clip-path="url(#paa88b29e64)" d="M 160.692395 240.814195 
L 160.152773 242.818197 
L 159.613152 242.355735 
L 153.857188 247.288662 
L 153.137692 246.672046 
L 158.893656 241.739119 
L 158.354034 241.276657 
z
" style="fill:#ffffff;stroke:#000000;stroke-linejoin:miter;"/>
   </g>
   <g id="patch_39">
    <path clip-path="url(#paa88b29e64)" d="M 167.88735 234.648037 
L 167.347728 236.652038 
L 166.808107 236.189576 
L 161.052143 241.122503 
L 160.332647 240.505887 
L 166.088611 235.57296 
L 165.548989 235.110499 
z
" style="fill:#ffffff;stroke:#000000;stroke-linejoin:miter;"/>
   </g>
   <g id="patch_40">
    <path clip-path="url(#paa88b29e64)" d="M 175.082305 228.481878 
L 174.542683 230.48588 
L 174.003062 230.023418 
L 168.247098 234.956345 
L 167.527602 234.339729 
L 173.283566 229.406802 
L 172.743944 228.94434 
z
" style="fill:#ffffff;stroke:#000000;stroke-linejoin:miter;"/>
   </g>
   <g id="patch_41">
    <path clip-path="url(#paa88b29e64)" d="M 182.27726 222.31572 
L 181.737638 224.319721 
L 181.198016 223.857259 
L 175.442053 228.790186 
L 174.722557 228.17357 
L 180.478521 223.240643 
L 179.938899 222.778181 
z
" style="fill:#ffffff;stroke:#000000;stroke-linejoin:miter;"/>
   </g>
   <g id="patch_42">
    <path clip-path="url(#paa88b29e64)" d="M 189.472215 216.149561 
L 188.932593 218.153563 
L 188.392971 217.691101 
L 182.637007 222.624028 
L 181.917512 222.007412 
L 187.673476 217.074485 
L 187.133854 216.612023 
z
" style="fill:#ffffff;stroke:#000000;stroke-linejoin:miter;"/>
   </g>
   <g id="patch_43">
    <path clip-path="url(#paa88b29e64)" d="M 196.66717 209.983402 
L 196.127548 211.987404 
L 195.587926 211.524942 
L 189.831962 216.457869 
L 189.112467 215.841253 
L 194.868431 210.908326 
L 194.328809 210.445864 
z
" style="fill:#ffffff;stroke:#000000;stroke-linejoin:miter;"/>
   </g>
   <g id="patch_44">
    <path clip-path="url(#paa88b29e64)" d="M 203.862125 203.817244 
L 203.322503 205.821245 
L 202.782881 205.358784 
L 197.026917 210.29171 
L 196.307422 209.675095 
L 202.063386 204.742168 
L 201.523764 204.279706 
z
" style="fill:#ffffff;stroke:#000000;stroke-linejoin:miter;"/>
   </g>
   <g id="patch_45">
    <path clip-path="url(#paa88b29e64)" d="M 77.950413 268.561909 
L 77.410791 270.56591 
L 76.87117 270.103448 
L 78.310153 268.870223 
L 77.590658 268.253607 
L 76.151674 269.486833 
L 75.612053 269.024371 
z
" style="fill:#ffffff;stroke:#000000;stroke-linejoin:miter;"/>
   </g>
   <g id="patch_46">
    <path clip-path="url(#paa88b29e64)" d="M 85.145368 262.39575 
L 84.605746 264.399752 
L 84.066125 263.93729 
L 78.310161 268.870217 
L 77.590665 268.253601 
L 83.346629 263.320674 
L 82.807008 262.858212 
z
" style="fill:#ffffff;stroke:#000000;stroke-linejoin:miter;"/>
   </g>
   <g id="patch_47">
    <path clip-path="url(#paa88b29e64)" d="M 92.340323 256.229592 
L 91.800701 258.233593 
L 91.26108 257.771131 
L 85.505116 262.704058 
L 84.78562 262.087442 
L 90.541584 257.154515 
L 90.001962 256.692054 
z
" style="fill:#ffffff;stroke:#000000;stroke-linejoin:miter;"/>
   </g>
   <g id="patch_48">
    <path clip-path="url(#paa88b29e64)" d="M 99.535278 250.063433 
L 98.995656 252.067435 
L 98.456035 251.604973 
L 92.700071 256.5379 
L 91.980575 255.921284 
L 97.736539 250.988357 
L 97.196917 250.525895 
z
" style="fill:#ffffff;stroke:#000000;stroke-linejoin:miter;"/>
   </g>
   <g id="patch_49">
    <path clip-path="url(#paa88b29e64)" d="M 106.730233 243.897275 
L 106.190611 245.901276 
L 105.650989 245.438814 
L 99.895026 250.371741 
L 99.17553 249.755125 
L 104.931494 244.822198 
L 104.391872 244.359736 
z
" style="fill:#ffffff;stroke:#000000;stroke-linejoin:miter;"/>
   </g>
   <g id="patch_50">
    <path clip-path="url(#paa88b29e64)" d="M 113.925188 237.731116 
L 113.385566 239.735118 
L 112.845944 239.272656 
L 107.08998 244.205582 
L 106.370485 243.588967 
L 112.126449 238.65604 
L 111.586827 238.193578 
z
" style="fill:#ffffff;stroke:#000000;stroke-linejoin:miter;"/>
   </g>
   <g id="patch_51">
    <path clip-path="url(#paa88b29e64)" d="M 121.120143 231.564957 
L 120.580521 233.568959 
L 120.040899 233.106497 
L 114.284935 238.039424 
L 113.56544 237.422808 
L 119.321404 232.489881 
L 118.781782 232.027419 
z
" style="fill:#ffffff;stroke:#000000;stroke-linejoin:miter;"/>
   </g>
   <g id="patch_52">
    <path clip-path="url(#paa88b29e64)" d="M 128.315098 225.398799 
L 127.775476 227.4028 
L 127.235854 226.940338 
L 121.47989 231.873265 
L 120.760395 231.256649 
L 126.516359 226.323723 
L 125.976737 225.861261 
z
" style="fill:#ffffff;stroke:#000000;stroke-linejoin:miter;"/>
   </g>
   <g id="patch_53">
    <path clip-path="url(#paa88b29e64)" d="M 135.510053 219.23264 
L 134.970431 221.236642 
L 134.430809 220.77418 
L 128.674845 225.707107 
L 127.95535 225.090491 
L 133.711314 220.157564 
L 133.171692 219.695102 
z
" style="fill:#ffffff;stroke:#000000;stroke-linejoin:miter;"/>
   </g>
   <g id="patch_54">
    <path clip-path="url(#paa88b29e64)" d="M 142.705007 213.066482 
L 142.165386 215.070483 
L 141.625764 214.608021 
L 135.8698 219.540948 
L 135.150305 218.924332 
L 140.906269 213.991406 
L 140.366647 213.528944 
z
" style="fill:#ffffff;stroke:#000000;stroke-linejoin:miter;"/>
   </g>
   <g id="patch_55">
    <path clip-path="url(#paa88b29e64)" d="M 149.899962 206.900323 
L 149.360341 208.904325 
L 148.820719 208.441863 
L 143.064755 213.37479 
L 142.34526 212.758174 
L 148.101224 207.825247 
L 147.561602 207.362785 
z
" style="fill:#ffffff;stroke:#000000;stroke-linejoin:miter;"/>
   </g>
   <g id="patch_56">
    <path clip-path="url(#paa88b29e64)" d="M 157.094917 200.734165 
L 156.555296 202.738166 
L 156.015674 202.275704 
L 150.25971 207.208631 
L 149.540215 206.592015 
L 155.296179 201.659088 
L 154.756557 201.196627 
z
" style="fill:#ffffff;stroke:#000000;stroke-linejoin:miter;"/>
   </g>
   <g id="patch_57">
    <path clip-path="url(#paa88b29e64)" d="M 164.289872 194.568006 
L 163.750251 196.572008 
L 163.210629 196.109546 
L 157.454665 201.042473 
L 156.73517 200.425857 
L 162.491134 195.49293 
L 161.951512 195.030468 
z
" style="fill:#ffffff;stroke:#000000;stroke-linejoin:miter;"/>
   </g>
   <g id="patch_58">
    <path clip-path="url(#paa88b29e64)" d="M 171.484827 188.401848 
L 170.945206 190.405849 
L 170.405584 189.943387 
L 164.64962 194.876314 
L 163.930125 194.259698 
L 169.686089 189.326771 
L 169.146467 188.864309 
z
" style="fill:#ffffff;stroke:#000000;stroke-linejoin:miter;"/>
   </g>
   <g id="patch_59">
    <path clip-path="url(#paa88b29e64)" d="M 178.679782 182.235689 
L 178.140161 184.23969 
L 177.600539 183.777229 
L 171.844575 188.710155 
L 171.12508 188.09354 
L 176.881043 183.160613 
L 176.341422 182.698151 
z
" style="fill:#ffffff;stroke:#000000;stroke-linejoin:miter;"/>
   </g>
   <g id="patch_60">
    <path clip-path="url(#paa88b29e64)" d="M 190.331716 142.851828 
L 187.992265 142.393433 
L 188.530791 141.930034 
L 178.320765 133.215366 
L 179.038799 132.5975 
L 189.248825 141.312168 
L 189.78735 140.848769 
z
" style="fill:#ffffff;stroke:#000000;stroke-linejoin:miter;"/>
   </g>
   <g id="patch_61">
    <path clip-path="url(#paa88b29e64)" d="M 199.864336 150.738278 
L 197.516826 150.311219 
L 198.04685 149.840676 
L 189.978366 143.165523 
L 190.685065 142.538132 
L 198.753549 149.213285 
L 199.283573 148.742741 
z
" style="fill:#ffffff;stroke:#000000;stroke-linejoin:miter;"/>
   </g>
   <g id="patch_62">
    <path clip-path="url(#paa88b29e64)" d="M 207.839446 156.804585 
L 205.473137 156.462099 
L 205.979718 155.972957 
L 199.526616 151.064373 
L 200.202057 150.412184 
L 206.65516 155.320768 
L 207.161741 154.831627 
z
" style="fill:#ffffff;stroke:#000000;stroke-linejoin:miter;"/>
   </g>
   <g id="patch_63">
    <path clip-path="url(#paa88b29e64)" d="M 214.818846 161.289549 
L 212.42765 161.115386 
L 212.885462 160.592123 
L 207.534238 157.153426 
L 208.144654 156.455743 
L 213.495878 159.89444 
L 213.953689 159.371178 
z
" style="fill:#ffffff;stroke:#000000;stroke-linejoin:miter;"/>
   </g>
   <g id="patch_64">
    <path clip-path="url(#paa88b29e64)" d="M 221.364339 164.431971 
L 218.967283 164.530583 
L 219.340252 163.959994 
L 214.5702 161.669942 
L 215.067493 160.909155 
L 219.837545 163.199207 
L 220.210514 162.628617 
z
" style="fill:#ffffff;stroke:#000000;stroke-linejoin:miter;"/>
   </g>
   <g id="patch_65">
    <path clip-path="url(#paa88b29e64)" d="M 228.037727 166.470652 
L 225.693767 166.911802 
L 225.950006 166.295752 
L 221.193513 164.842671 
L 221.535166 164.021271 
L 226.291658 165.474352 
L 226.547898 164.858301 
z
" style="fill:#ffffff;stroke:#000000;stroke-linejoin:miter;"/>
   </g>
   <g id="patch_66">
    <path clip-path="url(#paa88b29e64)" d="M 235.40081 167.644393 
L 233.167494 168.397112 
L 233.307049 167.754121 
L 227.94469 166.899313 
L 228.130763 166.041991 
L 233.493122 166.896799 
L 233.632677 166.253808 
z
" style="fill:#ffffff;stroke:#000000;stroke-linejoin:miter;"/>
   </g>
   <g id="patch_67">
    <path clip-path="url(#paa88b29e64)" d="M 244.01539 168.191996 
L 241.891843 169.150036 
L 241.948292 168.497808 
L 235.363177 168.079212 
L 235.438442 167.209574 
L 242.023558 167.62817 
L 242.080007 166.975942 
z
" style="fill:#ffffff;stroke:#000000;stroke-linejoin:miter;"/>
   </g>
   <g id="patch_68">
    <path clip-path="url(#paa88b29e64)" d="M 254.44327 168.35226 
L 252.385752 169.410847 
L 252.399435 168.756932 
L 244.006268 168.627939 
L 244.024513 167.756053 
L 252.417679 167.885046 
L 252.431362 167.231131 
z
" style="fill:#ffffff;stroke:#000000;stroke-linejoin:miter;"/>
   </g>
   <g id="patch_69">
    <path clip-path="url(#paa88b29e64)" d="M 262.091957 168.361838 
L 260.05506 169.449322 
L 260.056175 168.795303 
L 254.442527 168.788273 
L 254.444014 167.916247 
L 260.057662 167.923277 
L 260.058777 167.269258 
z
" style="fill:#ffffff;stroke:#000000;stroke-linejoin:miter;"/>
   </g>
   <g id="patch_70">
    <path clip-path="url(#paa88b29e64)" d="M 218.766497 191.081886 
L 218.223405 193.085199 
L 217.684585 192.622051 
L 204.221338 204.126009 
L 203.502911 203.508479 
L 216.966158 192.004521 
L 216.427338 191.541373 
z
" style="fill:#ffffff;stroke:#000000;stroke-linejoin:miter;"/>
   </g>
   <g id="patch_71">
    <path clip-path="url(#paa88b29e64)" d="M 229.868431 181.832416 
L 229.29584 183.829686 
L 228.763893 183.36074 
L 219.121128 191.394517 
L 218.411865 190.769255 
L 228.05463 182.735477 
L 227.522683 182.266531 
z
" style="fill:#ffffff;stroke:#000000;stroke-linejoin:miter;"/>
   </g>
   <g id="patch_72">
    <path clip-path="url(#paa88b29e64)" d="M 238.083415 175.511404 
L 237.418868 177.487646 
L 236.909035 177.000992 
L 230.208319 182.156852 
L 229.528543 181.507979 
L 236.229259 176.352119 
L 235.719427 175.865465 
z
" style="fill:#ffffff;stroke:#000000;stroke-linejoin:miter;"/>
   </g>
   <g id="patch_73">
    <path clip-path="url(#paa88b29e64)" d="M 244.326939 171.561421 
L 243.445082 173.474198 
L 242.991844 172.948019 
L 238.385573 175.86219 
L 237.781257 175.160618 
L 242.387528 172.246447 
L 241.93429 171.720268 
z
" style="fill:#ffffff;stroke:#000000;stroke-linejoin:miter;"/>
   </g>
   <g id="patch_74">
    <path clip-path="url(#paa88b29e64)" d="M 249.51449 169.425037 
L 248.231135 171.162917 
L 247.900599 170.573427 
L 244.547296 171.954414 
L 244.106581 171.168428 
L 247.459883 169.787441 
L 247.129346 169.197951 
z
" style="fill:#ffffff;stroke:#000000;stroke-linejoin:miter;"/>
   </g>
   <g id="patch_75">
    <path clip-path="url(#paa88b29e64)" d="M 254.561557 168.544824 
L 252.82102 169.96075 
L 252.668841 169.319865 
L 249.615942 169.852294 
L 249.413037 168.997781 
L 252.465936 168.465353 
L 252.313756 167.824468 
z
" style="fill:#ffffff;stroke:#000000;stroke-linejoin:miter;"/>
   </g>
   <g id="patch_76">
    <path clip-path="url(#paa88b29e64)" d="M 260.383629 168.363352 
L 258.396162 169.516055 
L 258.368424 168.862467 
L 254.580048 168.980549 
L 254.543065 168.109099 
L 258.331441 167.991016 
L 258.303704 167.337429 
z
" style="fill:#ffffff;stroke:#000000;stroke-linejoin:miter;"/>
   </g>
   <g id="patch_77">
    <path clip-path="url(#paa88b29e64)" d="M 262.091957 168.361838 
L 260.058232 169.453674 
L 260.057443 168.799654 
L 260.384155 168.799365 
L 260.383103 167.927339 
L 260.056391 167.927628 
L 260.055603 167.273609 
z
" style="fill:#ffffff;stroke:#000000;stroke-linejoin:miter;"/>
   </g>
   <g id="patch_78">
    <path clip-path="url(#paa88b29e64)" d="M 183.767934 177.963748 
L 183.204325 179.962894 
L 182.670274 179.495707 
L 179.035816 182.547147 
L 178.323748 181.924231 
L 181.958206 178.872791 
L 181.424154 178.405604 
z
" style="fill:#ffffff;stroke:#000000;stroke-linejoin:miter;"/>
   </g>
   <g id="patch_79">
    <path clip-path="url(#paa88b29e64)" d="M 188.33156 174.673306 
L 187.593152 176.630198 
L 187.101857 176.129735 
L 184.095464 178.297389 
L 183.440403 177.630106 
L 186.446797 175.462452 
L 185.955501 174.96199 
z
" style="fill:#ffffff;stroke:#000000;stroke-linejoin:miter;"/>
   </g>
   <g id="patch_80">
    <path clip-path="url(#paa88b29e64)" d="M 193.140877 172.236254 
L 192.036499 174.062205 
L 191.648086 173.499234 
L 188.590502 175.04862 
L 188.072617 174.297992 
L 191.130201 172.748605 
L 190.741788 172.185634 
z
" style="fill:#ffffff;stroke:#000000;stroke-linejoin:miter;"/>
   </g>
   <g id="patch_81">
    <path clip-path="url(#paa88b29e64)" d="M 198.966103 170.524482 
L 197.453617 172.121264 
L 197.206095 171.502601 
L 193.305892 172.648695 
L 192.975863 171.823812 
L 196.876066 170.677718 
L 196.628544 170.059055 
z
" style="fill:#ffffff;stroke:#000000;stroke-linejoin:miter;"/>
   </g>
   <g id="patch_82">
    <path clip-path="url(#paa88b29e64)" d="M 206.577453 169.409882 
L 204.785713 170.778094 
L 204.657177 170.133418 
L 199.051794 170.954266 
L 198.880412 170.094698 
L 204.485795 169.27385 
L 204.357259 168.629173 
z
" style="fill:#ffffff;stroke:#000000;stroke-linejoin:miter;"/>
   </g>
   <g id="patch_83">
    <path clip-path="url(#paa88b29e64)" d="M 216.745144 168.764343 
L 214.809632 169.980248 
L 214.753252 169.328015 
L 206.61504 169.844703 
L 206.539866 168.97506 
L 214.678078 168.458372 
L 214.621697 167.806139 
z
" style="fill:#ffffff;stroke:#000000;stroke-linejoin:miter;"/>
   </g>
   <g id="patch_84">
    <path clip-path="url(#paa88b29e64)" d="M 230.239392 168.459758 
L 228.238544 169.595331 
L 228.218452 168.941538 
L 216.758539 169.200205 
L 216.731749 168.328481 
L 228.191662 168.069814 
L 228.17157 167.416021 
z
" style="fill:#ffffff;stroke:#000000;stroke-linejoin:miter;"/>
   </g>
   <g id="patch_85">
    <path clip-path="url(#paa88b29e64)" d="M 247.830414 168.368017 
L 245.803151 169.468643 
L 245.798508 168.814635 
L 230.242488 168.895763 
L 230.236296 168.023753 
L 245.792316 167.942625 
L 245.787672 167.288617 
z
" style="fill:#ffffff;stroke:#000000;stroke-linejoin:miter;"/>
   </g>
   <g id="patch_86">
    <path clip-path="url(#paa88b29e64)" d="M 262.091957 168.361838 
L 260.05756 169.452753 
L 260.057174 168.798733 
L 247.830672 168.80403 
L 247.830157 167.932003 
L 260.056659 167.926707 
L 260.056274 167.272687 
z
" style="fill:#ffffff;stroke:#000000;stroke-linejoin:miter;"/>
   </g>
   <g id="matplotlib.axis_1">
    <g id="xtick_1">
     <g id="line2d_1">
      <path clip-path="url(#paa88b29e64)" d="M 62.590914 307.584 
L 62.590914 41.472 
" style="fill:none;stroke:#b0b0b0;stroke-linecap:square;stroke-width:0.8;"/>
     </g>
     <g id="line2d_2">
      <defs>
       <path d="M 0 0 
L 0 3.5 
" id="m9fb1851de8" style="stroke:#000000;stroke-width:0.8;"/>
      </defs>
      <g>
       <use style="stroke:#000000;stroke-width:0.8;" x="62.590914" xlink:href="#m9fb1851de8" y="307.584"/>
      </g>
     </g>
     <g id="text_1">
      <!-- 30 -->
      <defs>
       <path d="M 40.578125 39.3125 
Q 47.65625 37.796875 51.625 33 
Q 55.609375 28.21875 55.609375 21.1875 
Q 55.609375 10.40625 48.1875 4.484375 
Q 40.765625 -1.421875 27.09375 -1.421875 
Q 22.515625 -1.421875 17.65625 -0.515625 
Q 12.796875 0.390625 7.625 2.203125 
L 7.625 11.71875 
Q 11.71875 9.328125 16.59375 8.109375 
Q 21.484375 6.890625 26.8125 6.890625 
Q 36.078125 6.890625 40.9375 10.546875 
Q 45.796875 14.203125 45.796875 21.1875 
Q 45.796875 27.640625 41.28125 31.265625 
Q 36.765625 34.90625 28.71875 34.90625 
L 20.21875 34.90625 
L 20.21875 43.015625 
L 29.109375 43.015625 
Q 36.375 43.015625 40.234375 45.921875 
Q 44.09375 48.828125 44.09375 54.296875 
Q 44.09375 59.90625 40.109375 62.90625 
Q 36.140625 65.921875 28.71875 65.921875 
Q 24.65625 65.921875 20.015625 65.03125 
Q 15.375 64.15625 9.8125 62.3125 
L 9.8125 71.09375 
Q 15.4375 72.65625 20.34375 73.4375 
Q 25.25 74.21875 29.59375 74.21875 
Q 40.828125 74.21875 47.359375 69.109375 
Q 53.90625 64.015625 53.90625 55.328125 
Q 53.90625 49.265625 50.4375 45.09375 
Q 46.96875 40.921875 40.578125 39.3125 
z
" id="DejaVuSans-51"/>
       <path d="M 31.78125 66.40625 
Q 24.171875 66.40625 20.328125 58.90625 
Q 16.5 51.421875 16.5 36.375 
Q 16.5 21.390625 20.328125 13.890625 
Q 24.171875 6.390625 31.78125 6.390625 
Q 39.453125 6.390625 43.28125 13.890625 
Q 47.125 21.390625 47.125 36.375 
Q 47.125 51.421875 43.28125 58.90625 
Q 39.453125 66.40625 31.78125 66.40625 
z
M 31.78125 74.21875 
Q 44.046875 74.21875 50.515625 64.515625 
Q 56.984375 54.828125 56.984375 36.375 
Q 56.984375 17.96875 50.515625 8.265625 
Q 44.046875 -1.421875 31.78125 -1.421875 
Q 19.53125 -1.421875 13.0625 8.265625 
Q 6.59375 17.96875 6.59375 36.375 
Q 6.59375 54.828125 13.0625 64.515625 
Q 19.53125 74.21875 31.78125 74.21875 
z
" id="DejaVuSans-48"/>
      </defs>
      <g transform="translate(56.228414 322.182437)scale(0.1 -0.1)">
       <use xlink:href="#DejaVuSans-51"/>
       <use x="63.623047" xlink:href="#DejaVuSans-48"/>
      </g>
     </g>
    </g>
    <g id="xtick_2">
     <g id="line2d_3">
      <path clip-path="url(#paa88b29e64)" d="M 113.466929 307.584 
L 113.466929 41.472 
" style="fill:none;stroke:#b0b0b0;stroke-linecap:square;stroke-width:0.8;"/>
     </g>
     <g id="line2d_4">
      <g>
       <use style="stroke:#000000;stroke-width:0.8;" x="113.466929" xlink:href="#m9fb1851de8" y="307.584"/>
      </g>
     </g>
     <g id="text_2">
      <!-- 35 -->
      <defs>
       <path d="M 10.796875 72.90625 
L 49.515625 72.90625 
L 49.515625 64.59375 
L 19.828125 64.59375 
L 19.828125 46.734375 
Q 21.96875 47.46875 24.109375 47.828125 
Q 26.265625 48.1875 28.421875 48.1875 
Q 40.625 48.1875 47.75 41.5 
Q 54.890625 34.8125 54.890625 23.390625 
Q 54.890625 11.625 47.5625 5.09375 
Q 40.234375 -1.421875 26.90625 -1.421875 
Q 22.3125 -1.421875 17.546875 -0.640625 
Q 12.796875 0.140625 7.71875 1.703125 
L 7.71875 11.625 
Q 12.109375 9.234375 16.796875 8.0625 
Q 21.484375 6.890625 26.703125 6.890625 
Q 35.15625 6.890625 40.078125 11.328125 
Q 45.015625 15.765625 45.015625 23.390625 
Q 45.015625 31 40.078125 35.4375 
Q 35.15625 39.890625 26.703125 39.890625 
Q 22.75 39.890625 18.8125 39.015625 
Q 14.890625 38.140625 10.796875 36.28125 
z
" id="DejaVuSans-53"/>
      </defs>
      <g transform="translate(107.104429 322.182437)scale(0.1 -0.1)">
       <use xlink:href="#DejaVuSans-51"/>
       <use x="63.623047" xlink:href="#DejaVuSans-53"/>
      </g>
     </g>
    </g>
    <g id="xtick_3">
     <g id="line2d_5">
      <path clip-path="url(#paa88b29e64)" d="M 164.342943 307.584 
L 164.342943 41.472 
" style="fill:none;stroke:#b0b0b0;stroke-linecap:square;stroke-width:0.8;"/>
     </g>
     <g id="line2d_6">
      <g>
       <use style="stroke:#000000;stroke-width:0.8;" x="164.342943" xlink:href="#m9fb1851de8" y="307.584"/>
      </g>
     </g>
     <g id="text_3">
      <!-- 40 -->
      <defs>
       <path d="M 37.796875 64.3125 
L 12.890625 25.390625 
L 37.796875 25.390625 
z
M 35.203125 72.90625 
L 47.609375 72.90625 
L 47.609375 25.390625 
L 58.015625 25.390625 
L 58.015625 17.1875 
L 47.609375 17.1875 
L 47.609375 0 
L 37.796875 0 
L 37.796875 17.1875 
L 4.890625 17.1875 
L 4.890625 26.703125 
z
" id="DejaVuSans-52"/>
      </defs>
      <g transform="translate(157.980443 322.182437)scale(0.1 -0.1)">
       <use xlink:href="#DejaVuSans-52"/>
       <use x="63.623047" xlink:href="#DejaVuSans-48"/>
      </g>
     </g>
    </g>
    <g id="xtick_4">
     <g id="line2d_7">
      <path clip-path="url(#paa88b29e64)" d="M 215.218958 307.584 
L 215.218958 41.472 
" style="fill:none;stroke:#b0b0b0;stroke-linecap:square;stroke-width:0.8;"/>
     </g>
     <g id="line2d_8">
      <g>
       <use style="stroke:#000000;stroke-width:0.8;" x="215.218958" xlink:href="#m9fb1851de8" y="307.584"/>
      </g>
     </g>
     <g id="text_4">
      <!-- 45 -->
      <g transform="translate(208.856458 322.182437)scale(0.1 -0.1)">
       <use xlink:href="#DejaVuSans-52"/>
       <use x="63.623047" xlink:href="#DejaVuSans-53"/>
      </g>
     </g>
    </g>
    <g id="xtick_5">
     <g id="line2d_9">
      <path clip-path="url(#paa88b29e64)" d="M 266.094972 307.584 
L 266.094972 41.472 
" style="fill:none;stroke:#b0b0b0;stroke-linecap:square;stroke-width:0.8;"/>
     </g>
     <g id="line2d_10">
      <g>
       <use style="stroke:#000000;stroke-width:0.8;" x="266.094972" xlink:href="#m9fb1851de8" y="307.584"/>
      </g>
     </g>
     <g id="text_5">
      <!-- 50 -->
      <g transform="translate(259.732472 322.182437)scale(0.1 -0.1)">
       <use xlink:href="#DejaVuSans-53"/>
       <use x="63.623047" xlink:href="#DejaVuSans-48"/>
      </g>
     </g>
    </g>
    <g id="xtick_6">
     <g id="line2d_11">
      <path clip-path="url(#paa88b29e64)" d="M 316.970986 307.584 
L 316.970986 41.472 
" style="fill:none;stroke:#b0b0b0;stroke-linecap:square;stroke-width:0.8;"/>
     </g>
     <g id="line2d_12">
      <g>
       <use style="stroke:#000000;stroke-width:0.8;" x="316.970986" xlink:href="#m9fb1851de8" y="307.584"/>
      </g>
     </g>
     <g id="text_6">
      <!-- 55 -->
      <g transform="translate(310.608486 322.182437)scale(0.1 -0.1)">
       <use xlink:href="#DejaVuSans-53"/>
       <use x="63.623047" xlink:href="#DejaVuSans-53"/>
      </g>
     </g>
    </g>
    <g id="xtick_7">
     <g id="line2d_13">
      <path clip-path="url(#paa88b29e64)" d="M 367.847001 307.584 
L 367.847001 41.472 
" style="fill:none;stroke:#b0b0b0;stroke-linecap:square;stroke-width:0.8;"/>
     </g>
     <g id="line2d_14">
      <g>
       <use style="stroke:#000000;stroke-width:0.8;" x="367.847001" xlink:href="#m9fb1851de8" y="307.584"/>
      </g>
     </g>
     <g id="text_7">
      <!-- 60 -->
      <defs>
       <path d="M 33.015625 40.375 
Q 26.375 40.375 22.484375 35.828125 
Q 18.609375 31.296875 18.609375 23.390625 
Q 18.609375 15.53125 22.484375 10.953125 
Q 26.375 6.390625 33.015625 6.390625 
Q 39.65625 6.390625 43.53125 10.953125 
Q 47.40625 15.53125 47.40625 23.390625 
Q 47.40625 31.296875 43.53125 35.828125 
Q 39.65625 40.375 33.015625 40.375 
z
M 52.59375 71.296875 
L 52.59375 62.3125 
Q 48.875 64.0625 45.09375 64.984375 
Q 41.3125 65.921875 37.59375 65.921875 
Q 27.828125 65.921875 22.671875 59.328125 
Q 17.53125 52.734375 16.796875 39.40625 
Q 19.671875 43.65625 24.015625 45.921875 
Q 28.375 48.1875 33.59375 48.1875 
Q 44.578125 48.1875 50.953125 41.515625 
Q 57.328125 34.859375 57.328125 23.390625 
Q 57.328125 12.15625 50.6875 5.359375 
Q 44.046875 -1.421875 33.015625 -1.421875 
Q 20.359375 -1.421875 13.671875 8.265625 
Q 6.984375 17.96875 6.984375 36.375 
Q 6.984375 53.65625 15.1875 63.9375 
Q 23.390625 74.21875 37.203125 74.21875 
Q 40.921875 74.21875 44.703125 73.484375 
Q 48.484375 72.75 52.59375 71.296875 
z
" id="DejaVuSans-54"/>
      </defs>
      <g transform="translate(361.484501 322.182437)scale(0.1 -0.1)">
       <use xlink:href="#DejaVuSans-54"/>
       <use x="63.623047" xlink:href="#DejaVuSans-48"/>
      </g>
     </g>
    </g>
   </g>
   <g id="matplotlib.axis_2">
    <g id="ytick_1">
     <g id="line2d_15">
      <path clip-path="url(#paa88b29e64)" d="M 57.6 276.512632 
L 414.72 276.512632 
" style="fill:none;stroke:#b0b0b0;stroke-linecap:square;stroke-width:0.8;"/>
     </g>
     <g id="line2d_16">
      <defs>
       <path d="M 0 0 
L -3.5 0 
" id="m18a86e1bb5" style="stroke:#000000;stroke-width:0.8;"/>
      </defs>
      <g>
       <use style="stroke:#000000;stroke-width:0.8;" x="57.6" xlink:href="#m18a86e1bb5" y="276.512632"/>
      </g>
     </g>
     <g id="text_8">
      <!-- 40 -->
      <g transform="translate(37.875 280.311851)scale(0.1 -0.1)">
       <use xlink:href="#DejaVuSans-52"/>
       <use x="63.623047" xlink:href="#DejaVuSans-48"/>
      </g>
     </g>
    </g>
    <g id="ytick_2">
     <g id="line2d_17">
      <path clip-path="url(#paa88b29e64)" d="M 57.6 232.911307 
L 414.72 232.911307 
" style="fill:none;stroke:#b0b0b0;stroke-linecap:square;stroke-width:0.8;"/>
     </g>
     <g id="line2d_18">
      <g>
       <use style="stroke:#000000;stroke-width:0.8;" x="57.6" xlink:href="#m18a86e1bb5" y="232.911307"/>
      </g>
     </g>
     <g id="text_9">
      <!-- 45 -->
      <g transform="translate(37.875 236.710525)scale(0.1 -0.1)">
       <use xlink:href="#DejaVuSans-52"/>
       <use x="63.623047" xlink:href="#DejaVuSans-53"/>
      </g>
     </g>
    </g>
    <g id="ytick_3">
     <g id="line2d_19">
      <path clip-path="url(#paa88b29e64)" d="M 57.6 189.309981 
L 414.72 189.309981 
" style="fill:none;stroke:#b0b0b0;stroke-linecap:square;stroke-width:0.8;"/>
     </g>
     <g id="line2d_20">
      <g>
       <use style="stroke:#000000;stroke-width:0.8;" x="57.6" xlink:href="#m18a86e1bb5" y="189.309981"/>
      </g>
     </g>
     <g id="text_10">
      <!-- 50 -->
      <g transform="translate(37.875 193.1092)scale(0.1 -0.1)">
       <use xlink:href="#DejaVuSans-53"/>
       <use x="63.623047" xlink:href="#DejaVuSans-48"/>
      </g>
     </g>
    </g>
    <g id="ytick_4">
     <g id="line2d_21">
      <path clip-path="url(#paa88b29e64)" d="M 57.6 145.708656 
L 414.72 145.708656 
" style="fill:none;stroke:#b0b0b0;stroke-linecap:square;stroke-width:0.8;"/>
     </g>
     <g id="line2d_22">
      <g>
       <use style="stroke:#000000;stroke-width:0.8;" x="57.6" xlink:href="#m18a86e1bb5" y="145.708656"/>
      </g>
     </g>
     <g id="text_11">
      <!-- 55 -->
      <g transform="translate(37.875 149.507875)scale(0.1 -0.1)">
       <use xlink:href="#DejaVuSans-53"/>
       <use x="63.623047" xlink:href="#DejaVuSans-53"/>
      </g>
     </g>
    </g>
    <g id="ytick_5">
     <g id="line2d_23">
      <path clip-path="url(#paa88b29e64)" d="M 57.6 102.107331 
L 414.72 102.107331 
" style="fill:none;stroke:#b0b0b0;stroke-linecap:square;stroke-width:0.8;"/>
     </g>
     <g id="line2d_24">
      <g>
       <use style="stroke:#000000;stroke-width:0.8;" x="57.6" xlink:href="#m18a86e1bb5" y="102.107331"/>
      </g>
     </g>
     <g id="text_12">
      <!-- 60 -->
      <g transform="translate(37.875 105.906549)scale(0.1 -0.1)">
       <use xlink:href="#DejaVuSans-54"/>
       <use x="63.623047" xlink:href="#DejaVuSans-48"/>
      </g>
     </g>
    </g>
    <g id="ytick_6">
     <g id="line2d_25">
      <path clip-path="url(#paa88b29e64)" d="M 57.6 58.506005 
L 414.72 58.506005 
" style="fill:none;stroke:#b0b0b0;stroke-linecap:square;stroke-width:0.8;"/>
     </g>
     <g id="line2d_26">
      <g>
       <use style="stroke:#000000;stroke-width:0.8;" x="57.6" xlink:href="#m18a86e1bb5" y="58.506005"/>
      </g>
     </g>
     <g id="text_13">
      <!-- 65 -->
      <g transform="translate(37.875 62.305224)scale(0.1 -0.1)">
       <use xlink:href="#DejaVuSans-54"/>
       <use x="63.623047" xlink:href="#DejaVuSans-53"/>
      </g>
     </g>
    </g>
   </g>
   <g id="patch_87">
    <path d="M 57.6 307.584 
L 57.6 41.472 
" style="fill:none;stroke:#000000;stroke-linecap:square;stroke-linejoin:miter;stroke-width:0.8;"/>
   </g>
   <g id="patch_88">
    <path d="M 414.72 307.584 
L 414.72 41.472 
" style="fill:none;stroke:#000000;stroke-linecap:square;stroke-linejoin:miter;stroke-width:0.8;"/>
   </g>
   <g id="patch_89">
    <path d="M 57.6 307.584 
L 414.72 307.584 
" style="fill:none;stroke:#000000;stroke-linecap:square;stroke-linejoin:miter;stroke-width:0.8;"/>
   </g>
   <g id="patch_90">
    <path d="M 57.6 41.472 
L 414.72 41.472 
" style="fill:none;stroke:#000000;stroke-linecap:square;stroke-linejoin:miter;stroke-width:0.8;"/>
   </g>
  </g>
 </g>
 <defs>
  <clipPath id="paa88b29e64">
   <rect height="266.112" width="357.12" x="57.6" y="41.472"/>
  </clipPath>
 </defs>
</svg>
